# xmcd CD database file
#
# Track frame offsets:
#	183
#	20633
#	75080
#	97468
#	115278
#	134553
#	141438
#	159775
#	170345
#	179363
#	196583
#	213685
#	242030
#	294158
#	309800
#
# Disc length: 4348 seconds
#
# Revision: 6
# Processed by: cddbd v1.5.2PL0 Copyright (c) Steve Scherf et al.
# Submitted via: CDex 1.51
#
DISCID=cb10fa0f
DTITLE=Sequentia - Sequentia Edition CD 9: Bordesholmer Marienklage, 1475 oder 1476 CD1
DYEAR=1993
DGENRE=Classical [Medieval]
TTITLE0=Circumdederunt
TTITLE1=Horet Gij Sahligen Lude
TTITLE2=Maria Suesse Meichdekyn (Insert I)
TTITLE3=Ghat Sytten Gij Leven Kynder
TTITLE4=Owe Des Ghandes Des Yk Gha
TTITLE5=Owe Yamer Unde Not
TTITLE6=Myn Volk Wo Seer Hestu Dy
TTITLE7=O Quantus Luctus
TTITLE8=Ave Maris Stella (Insert II)
TTITLE9=Jam Auctor Lucis
TTITLE10=Tristor Et Cuncti Tristantur
TTITLE11=Stabat Mater Dolorosa (Insert III)
TTITLE12=We Helpet Klagen Myn Grote Leyt
TTITLE13=Maria Aller Junckfrowen Eyn Ere
TTITLE14=Och Starker God (Insert IV)
EXTD=YEAR: 1993
EXTT0=
EXTT1=
EXTT2=
EXTT3=
EXTT4=
EXTT5=
EXTT6=
EXTT7=
EXTT8=
EXTT9=
EXTT10=
EXTT11=
EXTT12=
EXTT13=
EXTT14=
PLAYORDER=
